<?xml version="1.0" encoding="UTF-8" standalone="no"?>
<!DOCTYPE svg PUBLIC "-//W3C//DTD SVG 1.1//EN" "http://www.w3.org/Graphics/SVG/1.1/DTD/svg11.dtd">
<svg version="1.1" xmlns="http://www.w3.org/2000/svg" xmlns:xlink="http://www.w3.org/1999/xlink" preserveAspectRatio="xMidYMid meet" viewBox="0 0 300 300" width="300" height="300"><defs><path d="M36.21 232.95C48.35 232.95 58.2 242.79 58.2 254.94C58.2 267.08 48.35 276.93 36.21 276.93C24.06 276.93 14.22 267.08 14.22 254.94C14.22 242.79 24.06 232.95 36.21 232.95Z" id="j2o8soDMMv"></path><path d="M156.98 111.18C164.52 115.21 224.8 147.44 232.34 151.46C264.62 204.27 221.62 246.07 221.62 246.07C286.94 288.24 220.46 330.4 154.3 247.49C146.16 246.13 105.44 239.29 32.16 226.98C63.72 149.78 105.33 111.18 156.98 111.18Z" id="bGlKDXRXT"></path><path d="M89.8 11.2C84.3 25.33 107 47.36 140.5 60.41C174 73.45 205.62 72.57 211.13 58.43C216.63 44.3 193.93 22.27 160.42 9.23C126.92 -3.81 95.3 -2.93 89.8 11.2Z" id="bG0cWFUV"></path><path d="M232.34 151.46C236.51 158.29 239.42 164.93 241.33 171.33C234.55 172.58 227.63 173.25 220.8 173.25C220.8 173.25 220.8 173.25 220.79 173.25C200.58 173.25 182.01 167.73 167.09 157.29C152.26 146.9 141.44 131.83 135.42 113.33C142.32 111.94 149.51 111.18 156.98 111.18C172.05 119.24 224.8 147.44 232.34 151.46Z" id="a3Pt0tGQ0V"></path><path d="M131.31 28.33C143.89 33.23 154.98 39.36 163.72 45.88C209.23 9.18 285.78 77.18 285.78 112.97C284.27 153.71 170.97 181.38 153.17 98.38C153.17 97.57 153.17 91.07 153.17 90.26C140.88 89.87 126.07 86.75 110.87 80.83C76.49 67.45 53.2 44.85 58.85 30.35C64.49 15.85 96.93 14.95 131.31 28.33Z" id="f25bbCHTVd"></path><path d="M227.54 81.38C232.54 81.38 236.59 85.43 236.59 90.43C236.59 95.43 232.54 99.49 227.54 99.49C222.54 99.49 218.48 95.43 218.48 90.43C218.48 85.43 222.54 81.38 227.54 81.38Z" id="bTmvWhAGG"></path><path d="M94.94 164.19C129.62 164.19 157.73 192.3 157.73 226.98C157.73 241.06 153.09 254.06 145.27 264.53C179.54 284.83 148.1 316.55 91.17 289.65C58.25 287.7 32.16 260.39 32.16 226.98C32.16 192.3 60.27 164.19 94.94 164.19Z" id="aYcOT48N9"></path><path d="M85.73 197.39L69.22 237.69L85.73 237.69L73.94 266.81L118.74 226.5L95.16 226.5L111.66 197.39L85.73 197.39Z" id="apereHyM"></path></defs><g><g><g><use xlink:href="#j2o8soDMMv" opacity="1" fill="#ffc107" fill-opacity="1"></use><g><use xlink:href="#j2o8soDMMv" opacity="1" fill-opacity="0" stroke="#000000" stroke-width="1" stroke-opacity="0"></use></g></g><g><use xlink:href="#bGlKDXRXT" opacity="1" fill="#ffc107" fill-opacity="1"></use><g><use xlink:href="#bGlKDXRXT" opacity="1" fill-opacity="0" stroke="#000000" stroke-width="1" stroke-opacity="0"></use></g></g><g><use xlink:href="#bG0cWFUV" opacity="1" fill="#ffc107" fill-opacity="1"></use><g><use xlink:href="#bG0cWFUV" opacity="1" fill-opacity="0" stroke="#000000" stroke-width="1" stroke-opacity="0"></use></g></g><g><use xlink:href="#a3Pt0tGQ0V" opacity="1" fill="#ffc107" fill-opacity="1"></use><g><use xlink:href="#a3Pt0tGQ0V" opacity="1" fill-opacity="0" stroke="#000000" stroke-width="1" stroke-opacity="0"></use></g></g><g><use xlink:href="#f25bbCHTVd" opacity="1" fill="#ff8907" fill-opacity="1"></use><g><use xlink:href="#f25bbCHTVd" opacity="1" fill-opacity="0" stroke="#000000" stroke-width="1" stroke-opacity="0"></use></g></g><g><use xlink:href="#bTmvWhAGG" opacity="1" fill="#ffffff" fill-opacity="1"></use><g><use xlink:href="#bTmvWhAGG" opacity="1" fill-opacity="0" stroke="#000000" stroke-width="1" stroke-opacity="0"></use></g></g><g><use xlink:href="#aYcOT48N9" opacity="1" fill="#ff8907" fill-opacity="1"></use><g><use xlink:href="#aYcOT48N9" opacity="1" fill-opacity="0" stroke="#000000" stroke-width="1" stroke-opacity="0"></use></g></g><g><use xlink:href="#apereHyM" opacity="1" fill="#ffffff" fill-opacity="1"></use></g></g></g></svg>