<?xml version="1.0" encoding="UTF-8" standalone="no"?>
<!DOCTYPE svg PUBLIC "-//W3C//DTD SVG 1.1//EN" "http://www.w3.org/Graphics/SVG/1.1/DTD/svg11.dtd">
<svg version="1.1" xmlns="http://www.w3.org/2000/svg" xmlns:xlink="http://www.w3.org/1999/xlink" preserveAspectRatio="xMidYMid meet" viewBox="0 0 284 284" width="284" height="284"><defs><path d="M36.67 219.76C48.06 219.76 57.28 228.99 57.28 240.38C57.28 251.77 48.06 261 36.67 261C25.28 261 16.05 251.77 16.05 240.38C16.05 228.99 25.28 219.76 36.67 219.76Z" id="bGOLCvOZY"></path><path d="M149.9 105.61C156.96 109.39 213.48 139.6 220.54 143.37C250.8 192.88 210.49 232.07 210.49 232.07C271.73 271.6 209.41 311.12 147.38 233.4C139.75 232.12 101.58 225.71 32.87 214.17C62.46 141.8 101.47 105.61 149.9 105.61Z" id="a1ISCUYCyQ"></path><path d="M86.91 11.88C81.76 25.13 103.04 45.78 134.45 58.01C165.85 70.23 195.5 69.41 200.66 56.16C205.81 42.91 184.53 22.26 153.12 10.03C121.71 -2.2 92.07 -1.37 86.91 11.88Z" id="bOrebH2Ov"></path><path d="M220.54 143.37C224.45 149.77 227.18 156 228.97 161.99C222.61 163.17 216.13 163.8 209.72 163.8C209.72 163.8 209.72 163.8 209.72 163.8C190.76 163.8 173.36 158.63 159.38 148.83C145.46 139.09 135.33 124.97 129.68 107.62C136.15 106.32 142.89 105.61 149.9 105.61C164.03 113.16 213.48 139.6 220.54 143.37Z" id="a3m3JAWotW"></path><path d="M125.82 27.93C137.62 32.53 148.02 38.28 156.21 44.39C198.88 9.98 270.65 73.73 270.65 107.28C269.23 145.48 163.01 171.42 146.33 93.6C146.33 92.84 146.33 86.75 146.33 85.99C134.8 85.62 120.91 82.7 106.66 77.15C74.44 64.61 52.6 43.42 57.89 29.83C63.18 16.24 93.6 15.39 125.82 27.93Z" id="bnvcFJ7us"></path><path d="M91.74 155.31C124.24 155.31 150.6 181.66 150.6 214.17C150.6 227.37 146.25 239.55 138.91 249.37C171.04 268.4 141.57 298.14 88.2 272.92C57.34 271.09 32.87 245.49 32.87 214.17C32.87 181.66 59.23 155.31 91.74 155.31Z" id="a42qWnFyh"></path><path d="M83.1 186.43L67.62 224.21L83.1 224.21L72.04 251.51L114.04 213.72L91.94 213.72L107.41 186.43L83.1 186.43Z" id="c5LUrtHkko"></path></defs><g><g><g><use xlink:href="#bGOLCvOZY" opacity="1" fill="#ffc107" fill-opacity="1"></use><g><use xlink:href="#bGOLCvOZY" opacity="1" fill-opacity="0" stroke="#000000" stroke-width="1" stroke-opacity="0"></use></g></g><g><use xlink:href="#a1ISCUYCyQ" opacity="1" fill="#ffc107" fill-opacity="1"></use><g><use xlink:href="#a1ISCUYCyQ" opacity="1" fill-opacity="0" stroke="#000000" stroke-width="1" stroke-opacity="0"></use></g></g><g><use xlink:href="#bOrebH2Ov" opacity="1" fill="#ffc107" fill-opacity="1"></use><g><use xlink:href="#bOrebH2Ov" opacity="1" fill-opacity="0" stroke="#000000" stroke-width="1" stroke-opacity="0"></use></g></g><g><use xlink:href="#a3m3JAWotW" opacity="1" fill="#ffc107" fill-opacity="1"></use><g><use xlink:href="#a3m3JAWotW" opacity="1" fill-opacity="0" stroke="#000000" stroke-width="1" stroke-opacity="0"></use></g></g><g><use xlink:href="#bnvcFJ7us" opacity="1" fill="#ff8907" fill-opacity="1"></use><g><use xlink:href="#bnvcFJ7us" opacity="1" fill-opacity="0" stroke="#000000" stroke-width="1" stroke-opacity="0"></use></g></g><g><use xlink:href="#a42qWnFyh" opacity="1" fill="#ff8907" fill-opacity="1"></use><g><use xlink:href="#a42qWnFyh" opacity="1" fill-opacity="0" stroke="#000000" stroke-width="1" stroke-opacity="0"></use></g></g><g><use xlink:href="#c5LUrtHkko" opacity="1" fill="#ffffff" fill-opacity="1"></use></g></g></g></svg>